<svg width="50" height="50" viewBox="0 0 50 50" fill="none" xmlns="http://www.w3.org/2000/svg">
<path d="M0 44.4444H44.4444V50H0V44.4444ZM44.4444 0H0V27.7778C0 33.9167 4.97222 38.8889 11.1111 38.8889H27.7778C33.9167 38.8889 38.8889 33.9167 38.8889 27.7778V19.4444H44.4444C47.5278 19.4444 50 16.9444 50 13.8889V5.55556C50 2.47222 47.5278 0 44.4444 0ZM33.3333 27.7778C33.3333 30.8333 30.8333 33.3333 27.7778 33.3333H11.1111C8.05556 33.3333 5.55556 30.8333 5.55556 27.7778V5.55556H33.3333V27.7778ZM44.4444 13.8889H38.8889V5.55556H44.4444V13.8889Z" fill="white" fill-opacity="0.84"/>
</svg>
